<svg width="31" height="34" viewBox="0 0 31 34" fill="none" xmlns="http://www.w3.org/2000/svg">
<g clip-path="url(#clip0_306_615)">
<path d="M15.5848 19.6659C14.602 19.6659 13.6595 20.0888 12.9645 20.8417C12.2696 21.5946 11.8792 22.6157 11.8792 23.6804V33.0822H19.2905V23.6804C19.2905 22.6157 18.9001 21.5946 18.2051 20.8417C17.5102 20.0888 16.5676 19.6659 15.5848 19.6659Z" fill="white"/>
<path d="M17.2376 2.04697C16.7839 1.60463 16.1952 1.35986 15.5848 1.35986C14.9745 1.35986 14.3858 1.60463 13.9321 2.04697L0.762207 14.8879V28.8047C0.762207 29.9404 1.17865 31.0296 1.91993 31.8326C2.6612 32.6357 3.66659 33.0868 4.71491 33.0868H9.40875V23.6809C9.40875 21.9064 10.0594 20.2046 11.2177 18.9498C12.3759 17.6951 13.9468 16.9902 15.5848 16.9902C17.2229 16.9902 18.7938 17.6951 19.952 18.9498C21.1103 20.2046 21.7609 21.9064 21.7609 23.6809V33.0828H26.4548C27.5031 33.0828 28.5085 32.6317 29.2498 31.8286C29.991 31.0256 30.4075 29.9364 30.4075 28.8007V14.8839L17.2376 2.04697Z" fill="white"/>
</g>
<defs>
<clipPath id="clip0_306_615">
<rect width="29.6453" height="32.1157" fill="white" transform="translate(0.762207 0.932129)"/>
</clipPath>
</defs>
</svg>
