<svg width="19" height="18" viewBox="0 0 19 18" fill="none" xmlns="http://www.w3.org/2000/svg">
<g id="Group">
<path id="Vector" d="M11.9571 1.24988C11.9571 0.170884 10.7999 -0.400116 10.0677 0.315884L5.98636 4.30888C5.86179 4.43106 5.70082 4.49866 5.53398 4.49888H2.19205C1.64999 4.49888 1.13012 4.73594 0.746825 5.15789C0.363528 5.57985 0.148193 6.15215 0.148193 6.74888V11.2459C0.148193 11.8426 0.363528 12.4149 0.746825 12.8369C1.13012 13.2588 1.64999 13.4959 2.19205 13.4959H5.53489C5.70173 13.4961 5.8627 13.5637 5.98727 13.6859L10.0668 17.6799C10.799 18.3959 11.9571 17.8239 11.9571 16.7459V1.24988ZM6.89292 5.42988L10.5946 1.80688V16.1889L6.89292 12.5649C6.51884 12.1985 6.0356 11.996 5.53489 11.9959H2.19205C2.01136 11.9959 1.83807 11.9169 1.71031 11.7762C1.58254 11.6356 1.51076 11.4448 1.51076 11.2459V6.74988C1.51076 6.55097 1.58254 6.36021 1.71031 6.21955C1.83807 6.0789 2.01136 5.99988 2.19205 5.99988H5.53489C6.0356 5.99974 6.51884 5.79727 6.89292 5.43088V5.42988Z" fill="#B3B3B3"/>
<path id="Vector_2" d="M15.5833 2.89678C15.6552 2.83821 15.7369 2.79581 15.8238 2.772C15.9106 2.74819 16.0008 2.74344 16.0893 2.75802C16.1778 2.7726 16.2628 2.80622 16.3395 2.85697C16.4161 2.90771 16.483 2.97459 16.5362 3.05378C17.6945 4.77367 18.3186 6.85873 18.3157 8.99978C18.3182 11.1409 17.6939 13.226 16.5353 14.9458C16.4255 15.0985 16.2661 15.1983 16.0907 15.2239C15.9154 15.2496 15.7378 15.1991 15.5956 15.0833C15.4534 14.9674 15.3578 14.7952 15.3288 14.6031C15.2999 14.4109 15.34 14.2139 15.4407 14.0538C16.4256 12.5921 16.956 10.8197 16.9531 8.99978C16.956 7.17987 16.4256 5.40747 15.4407 3.94578C15.3875 3.86659 15.349 3.77664 15.3273 3.68107C15.3057 3.5855 15.3014 3.48617 15.3146 3.38876C15.3279 3.29135 15.3584 3.19777 15.4045 3.11335C15.4506 3.02894 15.5114 2.95535 15.5833 2.89678Z" fill="#B3B3B3"/>
<path id="Vector_3" d="M13.9038 5.36978C13.9825 5.32281 14.0688 5.29336 14.1578 5.28312C14.2468 5.27287 14.3368 5.28204 14.4226 5.31008C14.5084 5.33813 14.5883 5.3845 14.6578 5.44657C14.7273 5.50863 14.785 5.58515 14.8277 5.67178C15.3145 6.66178 15.5907 7.79678 15.5907 8.99978C15.5922 10.1618 15.3299 11.3058 14.8277 12.3278C14.7416 12.5028 14.596 12.6331 14.4227 12.6899C14.2495 12.7467 14.0628 12.7255 13.9038 12.6308C13.7448 12.5361 13.6265 12.3758 13.5749 12.185C13.5233 11.9943 13.5426 11.7888 13.6286 11.6138C14.0101 10.8368 14.2281 9.94778 14.2281 8.99978C14.2281 8.05178 14.0101 7.16278 13.6286 6.38578C13.586 6.29911 13.5593 6.20405 13.55 6.10603C13.5408 6.008 13.5492 5.90893 13.5747 5.81448C13.6003 5.72003 13.6425 5.63205 13.699 5.55557C13.7555 5.4791 13.8251 5.41562 13.9038 5.36878V5.36978Z" fill="#B3B3B3"/>
</g>
</svg>
