<svg width="38" height="38" viewBox="0 0 38 38" fill="none" xmlns="http://www.w3.org/2000/svg">
<rect width="38" height="38" fill="#E5E5E5"/>
<rect x="-37" y="-496" width="1728" height="1117" fill="white"/>
<rect x="-37" y="-495" width="371.801" height="982" fill="black"/>
<rect x="0.0566406" y="0.323242" width="37.0566" height="37.0566" rx="5" fill="#004638"/>
<path d="M13.6345 26.7873C12.5332 25.686 11.7833 24.2829 11.4794 22.7554C11.1756 21.2279 11.3316 19.6446 11.9276 18.2057C12.5236 16.7669 13.5329 15.537 14.8278 14.6718C16.1228 13.8065 17.6452 13.3447 19.2027 13.3447C20.7601 13.3447 22.2826 13.8065 23.5775 14.6718C24.8725 15.537 25.8818 16.7669 26.4778 18.2057C27.0738 19.6446 27.2297 21.2279 26.9259 22.7554C26.6221 24.2829 25.8721 25.686 24.7708 26.7873L26.008 28.0245C26.9031 27.1318 27.6129 26.071 28.0967 24.9031C28.5804 23.7352 28.8287 22.4833 28.8271 21.2192C28.8271 15.9038 24.518 11.5947 19.2027 11.5947C13.8874 11.5947 9.57825 15.9038 9.57825 21.2192C9.57825 23.8772 10.6553 26.2833 12.3973 28.0245L13.6345 26.7873Z" fill="#159643"/>
<path d="M23.5336 25.5502C24.3901 24.6936 24.9734 23.6023 25.2096 22.4142C25.4459 21.2262 25.3246 19.9948 24.861 18.8757C24.3974 17.7566 23.6124 16.8001 22.6052 16.1271C21.5981 15.4542 20.4139 15.095 19.2026 15.095C17.9913 15.095 16.8072 15.4542 15.8 16.1271C14.7929 16.8001 14.0079 17.7566 13.5443 18.8757C13.0807 19.9948 12.9594 21.2262 13.1956 22.4142C13.4319 23.6023 14.0152 24.6936 14.8716 25.5502L16.1097 24.313C15.4979 23.7012 15.0812 22.9217 14.9124 22.073C14.7436 21.2244 14.8302 20.3448 15.1613 19.5454C15.4924 18.746 16.0532 18.0628 16.7726 17.5821C17.492 17.1014 18.3378 16.8448 19.2031 16.8448C20.0683 16.8448 20.9141 17.1014 21.6336 17.5821C22.353 18.0628 22.9137 18.746 23.2448 19.5454C23.5759 20.3448 23.6626 21.2244 23.4937 22.073C23.3249 22.9217 22.9083 23.7012 22.2965 24.313L23.5336 25.5502Z" fill="#159643"/>
<path d="M21.0584 23.075C21.4255 22.7079 21.6754 22.2402 21.7767 21.731C21.8779 21.2218 21.8259 20.6941 21.6272 20.2145C21.4286 19.7349 21.0921 19.325 20.6605 19.0366C20.2288 18.7482 19.7214 18.5942 19.2022 18.5942C18.6831 18.5942 18.1756 18.7482 17.744 19.0366C17.3124 19.325 16.9759 19.7349 16.7772 20.2145C16.5786 20.6941 16.5266 21.2218 16.6278 21.731C16.729 22.2402 16.979 22.7079 17.346 23.075L18.5841 21.8378C18.4617 21.7154 18.3783 21.5595 18.3446 21.3898C18.3108 21.2201 18.3281 21.0441 18.3943 20.8843C18.4605 20.7244 18.5727 20.5877 18.7166 20.4915C18.8604 20.3954 19.0296 20.3441 19.2027 20.3441C19.3757 20.3441 19.5449 20.3954 19.6888 20.4915C19.8327 20.5877 19.9448 20.7244 20.011 20.8843C20.0773 21.0441 20.0946 21.2201 20.0608 21.3898C20.027 21.5595 19.9437 21.7154 19.8213 21.8378L21.0584 23.075Z" fill="#159643"/>
</svg>
